<?xml version="1.0" encoding="UTF-8" standalone="no"?>
<!-- Created with Inkscape (http://www.inkscape.org/) -->

<svg
   width="16"
   height="16"
   viewBox="0 0 4.2333333 4.2333333"
   version="1.1"
   id="svg5"
   sodipodi:docname="random.svg"
   inkscape:version="1.1.2 (1:1.1+202202050950+0a00cf5339)"
   xmlns:inkscape="http://www.inkscape.org/namespaces/inkscape"
   xmlns:sodipodi="http://sodipodi.sourceforge.net/DTD/sodipodi-0.dtd"
   xmlns="http://www.w3.org/2000/svg"
   xmlns:svg="http://www.w3.org/2000/svg">
  <sodipodi:namedview
     id="namedview7"
     pagecolor="#505050"
     bordercolor="#eeeeee"
     borderopacity="1"
     inkscape:pageshadow="0"
     inkscape:pageopacity="0"
     inkscape:pagecheckerboard="0"
     inkscape:document-units="px"
     showgrid="false"
     units="px"
     showguides="false"
     inkscape:guide-bbox="true"
     inkscape:snap-bbox="true"
     inkscape:snap-bbox-edge-midpoints="true"
     inkscape:snap-bbox-midpoints="true"
     inkscape:zoom="32"
     inkscape:cx="9.28125"
     inkscape:cy="8.96875"
     inkscape:window-width="1436"
     inkscape:window-height="876"
     inkscape:window-x="0"
     inkscape:window-y="20"
     inkscape:window-maximized="1"
     inkscape:current-layer="layer1">
    <sodipodi:guide
       position="2.1174974,2.7382198"
       orientation="1,0"
       id="guide824" />
    <sodipodi:guide
       position="-2.0528093,2.1149877"
       orientation="0,-1"
       id="guide826" />
    <sodipodi:guide
       position="1.6371094,3.1005859"
       orientation="0,-1"
       id="guide2148" />
    <sodipodi:guide
       position="1.3653783,1.1326388"
       orientation="0,-1"
       id="guide2321" />
  </sodipodi:namedview>
  <defs
     id="defs2">
    <marker
       style="overflow:visible"
       id="TriangleOutS"
       refX="0.0"
       refY="0.0"
       orient="auto"
       inkscape:stockid="TriangleOutS"
       inkscape:isstock="true">
      <path
         transform="scale(0.2)"
         style="fill-rule:evenodd;fill:context-stroke;stroke:context-stroke;stroke-width:1.0pt"
         d="M 5.77,0.0 L -2.88,5.0 L -2.88,-5.0 L 5.77,0.0 z "
         id="path1011" />
    </marker>
    <marker
       style="overflow:visible"
       id="TriangleOutS-3"
       refX="0"
       refY="0"
       orient="auto"
       inkscape:stockid="TriangleOutS"
       inkscape:isstock="true">
      <path
         transform="scale(0.2)"
         style="fill:context-stroke;fill-rule:evenodd;stroke:context-stroke;stroke-width:1pt"
         d="M 5.77,0 -2.88,5 V -5 Z"
         id="path1011-6" />
    </marker>
    <marker
       style="overflow:visible"
       id="TriangleOutS-6"
       refX="0"
       refY="0"
       orient="auto"
       inkscape:stockid="TriangleOutS"
       inkscape:isstock="true">
      <path
         transform="scale(0.2)"
         style="fill:context-stroke;fill-rule:evenodd;stroke:context-stroke;stroke-width:1pt"
         d="M 5.77,0 -2.88,5 V -5 Z"
         id="path1011-2" />
    </marker>
  </defs>
  <g
     inkscape:label="Layer 1"
     inkscape:groupmode="layer"
     id="layer1">
    <g
       id="path861">
      <path
         style="color:#000000;fill:#ffffff;-inkscape-stroke:none"
         d="M 0.23046875,0.98632813 V 1.2851562 h 0.71289063 c 0.0603843,0 0.19792202,0.082704 0.34960932,0.2558594 C 1.4446561,1.714171 1.6103236,1.9555735 1.7773437,2.2011719 1.9443639,2.4467702 2.1119535,2.6973328 2.2832031,2.8925781 2.4544528,3.0878235 2.6284829,3.25 2.8574219,3.25 H 3.7714844 V 2.9511719 H 2.8574219 c -0.061014,0 -0.1977526,-0.082724 -0.3496094,-0.2558594 C 2.3559557,2.5221774 2.1904422,2.2807319 2.0234375,2.0351563 1.8564328,1.7895806 1.6866458,1.5409282 1.515625,1.3457031 1.3446042,1.150478 1.1721314,0.98632813 0.94335938,0.98632813 Z"
         id="path7254" />
      <g
         id="g7244">
        <g
           id="path7246">
          <path
             style="color:#000000;fill:#ffffff;fill-rule:evenodd;stroke-width:0.0594784pt;-inkscape-stroke:none"
             d="M 4.1141318,3.1006945 3.5996436,3.3980865 V 2.8033025 Z"
             id="path7250" />
          <path
             style="color:#000000;fill:#ffffff;fill-rule:evenodd;-inkscape-stroke:none"
             d="M 3.5605469,2.734375 V 3.4667969 L 4.1933594,3.1015625 4.1347656,3.0664063 Z m 0.078125,0.1367188 0.3964843,0.2304687 -0.3964843,0.2285156 z"
             id="path7252" />
        </g>
      </g>
    </g>
    <g
       id="path861-9">
      <path
         style="color:#000000;fill:#ffffff;-inkscape-stroke:none"
         d="M 2.8554688,0.98632813 C 2.6265297,0.98632813 2.4524997,1.1485047 2.28125,1.34375 2.1100003,1.5389953 1.9424108,1.7876048 1.7753906,2.0332031 1.6083705,2.2788015 1.4427029,2.5221571 1.2910156,2.6953125 1.1393283,2.8684679 1.0017905,2.9511719 0.94140625,2.9511719 H 0.22851563 v 0.296875 H 0.94140625 C 1.1701782,3.2480469 1.3426511,3.0858501 1.5136719,2.890625 1.6846927,2.6953999 1.8544797,2.4467475 2.0214844,2.2011719 2.1884891,1.9555962 2.3540026,1.7121976 2.5058594,1.5390625 2.6577162,1.3659274 2.7944547,1.2832031 2.8554688,1.2832031 H 3.7695313 V 0.98632813 Z"
         id="path7268" />
      <g
         id="g7258">
        <g
           id="path7260">
          <path
             style="color:#000000;fill:#ffffff;fill-rule:evenodd;stroke-width:0.0594784pt;-inkscape-stroke:none"
             d="M 4.1122605,1.1348687 3.5977723,1.4322607 V 0.83747669 Z"
             id="path7264" />
          <path
             style="color:#000000;fill:#ffffff;fill-rule:evenodd;-inkscape-stroke:none"
             d="M 3.5585938,0.76953125 V 1.5019531 L 4.1914062,1.1347656 4.1328125,1.0996094 Z M 3.6367188,0.90429688 4.03125,1.1347656 3.6367188,1.3652344 Z"
             id="path7266" />
        </g>
      </g>
    </g>
  </g>
</svg>
